<svg xmlns="http://www.w3.org/2000/svg" viewBox="0 0 151 54"><g id="Layer_2" data-name="Layer 2"><g id="Layer_1-2" data-name="Layer 1"><path d="M106.56,48.36,101,12A27.61,27.61,0,0,1,118.45,0H85.15L73.51,28.86,62.45,0H48.55l-2,11.84C45.64,5.68,40.58,0,30.79,0H0V54H31.79a19,19,0,0,0,7.8-1.55L39.33,54h14l4.55-31.08h.14L70.53,54h5.62l13-31.08h.14l4,31.08h24.83A29.25,29.25,0,0,1,106.56,48.36ZM14,12.14h13.6c2.85,0,4.8,1.62,4.8,4.21s-2,4.21-4.8,4.21H14ZM28.11,41.85H14V32.71H28.11c3.42,0,5.38,1.85,5.38,4.53C33.49,40.15,31.45,41.85,28.11,41.85Zm9.28-15.71a11.53,11.53,0,0,0,7.66-5.73l-1.51,8.88A11.52,11.52,0,0,0,37.39,26.14ZM134.52,54H150V44.78A31,31,0,0,1,134.52,54Zm.07-54a25,25,0,0,1,15.9,12.39l-11.8,6.15a13.59,13.59,0,0,0-11.57-7c-8.94,0-15.25,6.8-15.25,15.82s6.31,15.83,15.25,15.83a17.34,17.34,0,0,0,10.09-3.28V35.68h-12.3V23.29H151V0Z"/></g></g></svg>